<svg width="1219" height="216" xmlns="http://www.w3.org/2000/svg" xmlns:xlink="http://www.w3.org/1999/xlink" overflow="hidden"><defs><clipPath id="clip0"><rect x="0" y="0" width="1219" height="216"/></clipPath><linearGradient x1="-0.249992" y1="0.250026" x2="155.25" y2="155.771" gradientUnits="userSpaceOnUse" spreadMethod="reflect" id="fill1"><stop offset="0"/><stop offset="0.15"/><stop offset="1" stop-color="#595959"/></linearGradient><linearGradient x1="173.56" y1="-0.150012" x2="215.44" y2="156.171" gradientUnits="userSpaceOnUse" spreadMethod="reflect" id="fill2"><stop offset="0" stop-color="#6369E7"/><stop offset="0.05" stop-color="#6369E7"/><stop offset="1" stop-color="#E8667C"/></linearGradient><linearGradient x1="-0.183484" y1="173.708" x2="155.184" y2="215.345" gradientUnits="userSpaceOnUse" spreadMethod="reflect" id="fill3"><stop offset="0" stop-color="#6369E7"/><stop offset="0.05" stop-color="#6369E7"/><stop offset="1" stop-color="#E8667C"/></linearGradient><linearGradient x1="173" y1="173.024" x2="216" y2="216.029" gradientUnits="userSpaceOnUse" spreadMethod="reflect" id="fill4"><stop offset="0" stop-color="#E8667C"/><stop offset="1" stop-color="#E8667C"/></linearGradient><linearGradient x1="282.277" y1="-36.8071" x2="923.905" y2="262.43" gradientUnits="userSpaceOnUse" spreadMethod="reflect" id="fill5"><stop offset="0" stop-color="#6369E7"/><stop offset="0.00757576" stop-color="#6468E6"/><stop offset="0.0151515" stop-color="#6668E6"/><stop offset="0.0227273" stop-color="#6868E6"/><stop offset="0.030303" stop-color="#6A68E6"/><stop offset="0.0378788" stop-color="#6C68E6"/><stop offset="0.0454545" stop-color="#6E68E6"/><stop offset="0.0530303" stop-color="#6F68E6"/><stop offset="0.0606061" stop-color="#7168E6"/><stop offset="0.0681818" stop-color="#7368E6"/><stop offset="0.0757576" stop-color="#7568E6"/><stop offset="0.0833333" stop-color="#7768E5"/><stop offset="0.0909091" stop-color="#7868E5"/><stop offset="0.0984849" stop-color="#7A68E5"/><stop offset="0.106061" stop-color="#7C68E5"/><stop offset="0.113636" stop-color="#7D68E5"/><stop offset="0.121212" stop-color="#7F68E4"/><stop offset="0.128788" stop-color="#8168E4"/><stop offset="0.136364" stop-color="#8268E4"/><stop offset="0.143939" stop-color="#8468E4"/><stop offset="0.151515" stop-color="#8668E3"/><stop offset="0.159091" stop-color="#8768E3"/><stop offset="0.166667" stop-color="#8968E3"/><stop offset="0.174242" stop-color="#8B68E2"/><stop offset="0.181818" stop-color="#8C68E2"/><stop offset="0.189394" stop-color="#8E68E2"/><stop offset="0.19697" stop-color="#8F68E1"/><stop offset="0.204545" stop-color="#9168E1"/><stop offset="0.212121" stop-color="#9268E1"/><stop offset="0.219697" stop-color="#9468E0"/><stop offset="0.227273" stop-color="#9568E0"/><stop offset="0.234848" stop-color="#9768DF"/><stop offset="0.242424" stop-color="#9868DF"/><stop offset="0.25" stop-color="#9A68DF"/><stop offset="0.257576" stop-color="#9B68DE"/><stop offset="0.265152" stop-color="#9D68DE"/><stop offset="0.272727" stop-color="#9E68DD"/><stop offset="0.280303" stop-color="#A068DD"/><stop offset="0.287879" stop-color="#A168DC"/><stop offset="0.295455" stop-color="#A368DC"/><stop offset="0.30303" stop-color="#A468DB"/><stop offset="0.310606" stop-color="#A568DB"/><stop offset="0.318182" stop-color="#A768DA"/><stop offset="0.325758" stop-color="#A868D9"/><stop offset="0.333333" stop-color="#A968D9"/><stop offset="0.340909" stop-color="#AB68D8"/><stop offset="0.348485" stop-color="#AC68D8"/><stop offset="0.356061" stop-color="#AD68D7"/><stop offset="0.363636" stop-color="#AF68D6"/><stop offset="0.371212" stop-color="#B068D6"/><stop offset="0.378788" stop-color="#B168D5"/><stop offset="0.386364" stop-color="#B268D5"/><stop offset="0.393939" stop-color="#B368D4"/><stop offset="0.401515" stop-color="#B568D3"/><stop offset="0.409091" stop-color="#B668D2"/><stop offset="0.416667" stop-color="#B768D2"/><stop offset="0.424242" stop-color="#B868D1"/><stop offset="0.431818" stop-color="#B968D0"/><stop offset="0.439394" stop-color="#BB68D0"/><stop offset="0.44697" stop-color="#BC68CF"/><stop offset="0.454545" stop-color="#BD68CE"/><stop offset="0.462121" stop-color="#BE68CD"/><stop offset="0.469697" stop-color="#BF68CD"/><stop offset="0.477273" stop-color="#C068CC"/><stop offset="0.484848" stop-color="#C168CB"/><stop offset="0.492424" stop-color="#C268CA"/><stop offset="0.5" stop-color="#C368C9"/><stop offset="0.507576" stop-color="#C468C8"/><stop offset="0.515152" stop-color="#C568C8"/><stop offset="0.522727" stop-color="#C668C7"/><stop offset="0.530303" stop-color="#C768C6"/><stop offset="0.537879" stop-color="#C868C5"/><stop offset="0.545455" stop-color="#C968C4"/><stop offset="0.55303" stop-color="#CA68C3"/><stop offset="0.560606" stop-color="#CB67C2"/><stop offset="0.568182" stop-color="#CC67C1"/><stop offset="0.575758" stop-color="#CD67C0"/><stop offset="0.583333" stop-color="#CE67C0"/><stop offset="0.590909" stop-color="#CF67BF"/><stop offset="0.598485" stop-color="#CF67BE"/><stop offset="0.606061" stop-color="#D067BD"/><stop offset="0.613636" stop-color="#D167BC"/><stop offset="0.621212" stop-color="#D267BB"/><stop offset="0.628788" stop-color="#D367BA"/><stop offset="0.636364" stop-color="#D467B9"/><stop offset="0.643939" stop-color="#D467B8"/><stop offset="0.651515" stop-color="#D567B7"/><stop offset="0.659091" stop-color="#D667B6"/><stop offset="0.666667" stop-color="#D767B4"/><stop offset="0.674242" stop-color="#D767B3"/><stop offset="0.681818" stop-color="#D867B2"/><stop offset="0.689394" stop-color="#D967B1"/><stop offset="0.69697" stop-color="#D967B0"/><stop offset="0.704545" stop-color="#DA67AF"/><stop offset="0.712121" stop-color="#DB67AE"/><stop offset="0.719697" stop-color="#DB67AD"/><stop offset="0.727273" stop-color="#DC67AC"/><stop offset="0.734848" stop-color="#DC67AA"/><stop offset="0.742424" stop-color="#DD67A9"/><stop offset="0.75" stop-color="#DE67A8"/><stop offset="0.757576" stop-color="#DE67A7"/><stop offset="0.765152" stop-color="#DF67A6"/><stop offset="0.772727" stop-color="#DF67A5"/><stop offset="0.780303" stop-color="#E067A3"/><stop offset="0.787879" stop-color="#E067A2"/><stop offset="0.795455" stop-color="#E167A1"/><stop offset="0.80303" stop-color="#E167A0"/><stop offset="0.810606" stop-color="#E2669E"/><stop offset="0.818182" stop-color="#E2669D"/><stop offset="0.825758" stop-color="#E2669C"/><stop offset="0.833333" stop-color="#E3669A"/><stop offset="0.840909" stop-color="#E36699"/><stop offset="0.848485" stop-color="#E46698"/><stop offset="0.856061" stop-color="#E46697"/><stop offset="0.863636" stop-color="#E46695"/><stop offset="0.871212" stop-color="#E56694"/><stop offset="0.878788" stop-color="#E56693"/><stop offset="0.886364" stop-color="#E56691"/><stop offset="0.893939" stop-color="#E66690"/><stop offset="0.901515" stop-color="#E6668E"/><stop offset="0.909091" stop-color="#E6668D"/><stop offset="0.916667" stop-color="#E6668C"/><stop offset="0.924242" stop-color="#E6668A"/><stop offset="0.931818" stop-color="#E76689"/><stop offset="0.939394" stop-color="#E76687"/><stop offset="0.94697" stop-color="#E76686"/><stop offset="0.954545" stop-color="#E76684"/><stop offset="0.962121" stop-color="#E76683"/><stop offset="0.969697" stop-color="#E76681"/><stop offset="0.977273" stop-color="#E76680"/><stop offset="0.984848" stop-color="#E7667F"/><stop offset="0.992424" stop-color="#E7667D"/><stop offset="1" stop-color="#E8667C"/></linearGradient><linearGradient x1="23.6901" y1="22.2452" x2="133.983" y2="132.554" gradientUnits="userSpaceOnUse" spreadMethod="reflect" id="fill6"><stop offset="0" stop-color="#313131"/><stop offset="0.3" stop-color="#313131"/><stop offset="0.7" stop-color="#505050"/><stop offset="1" stop-color="#505050"/></linearGradient><linearGradient x1="23.6901" y1="22.2452" x2="133.983" y2="132.554" gradientUnits="userSpaceOnUse" spreadMethod="reflect" id="fill7"><stop offset="0" stop-color="#313131"/><stop offset="0.3" stop-color="#313131"/><stop offset="0.7" stop-color="#505050"/><stop offset="1" stop-color="#505050"/></linearGradient></defs><g clip-path="url(#clip0)"><rect x="0" y="0" width="1219" height="216.029" fill="#FFFFFF" fill-opacity="0"/><rect x="0" y="0" width="155" height="156.021" fill="url(#fill1)"/><rect x="173" y="0" width="43" height="156.021" fill="url(#fill2)"/><rect x="0" y="173.024" width="155" height="43.0059" fill="url(#fill3)"/><rect x="173" y="173.024" width="43" height="43.0059" fill="url(#fill4)"/><path d="M313.845 84.8404C313.467 87.1441 313.033 88.9569 312.542 90.2787L299.911 124.891 328.062 124.891 315.318 90.2787C314.902 89.1457 314.487 87.3329 314.072 84.8404ZM899.966 83.5942 899.966 147.607 912.087 147.607C922.736 147.607 931.024 144.756 936.953 139.053 942.881 133.35 945.845 125.268 945.845 114.807 945.845 93.9986 934.781 83.5942 912.654 83.5942ZM890.451 74.9836 912.88 74.9836C941.503 74.9836 955.814 88.1827 955.814 114.581 955.814 127.119 951.84 137.193 943.891 144.803 935.942 152.412 925.303 156.217 911.974 156.217L890.451 156.217ZM831.451 74.9836 872.685 74.9836 872.685 83.5942 840.966 83.5942 840.966 110.615 870.306 110.615 870.306 119.169 840.966 119.169 840.966 147.607 874.497 147.607 874.497 156.217 831.451 156.217ZM763.124 74.9836 819.482 74.9836 819.482 83.5942 796.033 83.5942 796.033 156.217 786.517 156.217 786.517 83.5942 763.124 83.5942ZM684.451 74.9836 696.798 74.9836 737.466 138.713C739.165 141.357 740.26 143.169 740.751 144.151L740.978 144.151C740.6 141.81 740.412 137.826 740.412 132.198L740.412 74.9836 749.927 74.9836 749.927 156.217 738.259 156.217 696.458 91.4683C695.401 89.8444 694.533 88.1449 693.853 86.3699L693.513 86.3699C693.815 88.1071 693.966 91.8271 693.966 97.5297L693.966 156.217 684.451 156.217ZM625.451 74.9836 666.685 74.9836 666.685 83.5942 634.966 83.5942 634.966 110.615 664.306 110.615 664.306 119.169 634.966 119.169 634.966 147.607 668.497 147.607 668.497 156.217 625.451 156.217ZM521.451 74.9836 534.025 74.9836 558.947 131.632C560.872 135.975 562.119 139.223 562.685 141.375L563.025 141.375C564.648 136.919 565.951 133.596 566.933 131.405L592.365 74.9836 604.259 74.9836 604.259 156.217 594.8 156.217 594.8 101.722C594.8 97.4164 595.064 92.1481 595.593 85.9167L595.367 85.9167C594.46 89.58 593.648 92.2047 592.931 93.7909L565.177 156.217 560.533 156.217 532.835 94.244C532.042 92.4313 531.231 89.6555 530.4 85.9167L530.173 85.9167C530.475 89.1646 530.626 94.4706 530.626 101.835L530.626 156.217 521.451 156.217ZM361.431 74.9836 370.947 74.9836 370.947 124.041C370.947 140.696 377.97 149.023 392.017 149.023 405.573 149.023 412.351 140.979 412.351 124.891L412.351 74.9836 421.867 74.9836 421.867 123.361C421.867 146.172 411.577 157.577 390.997 157.577 371.286 157.577 361.431 146.606 361.431 124.664ZM309.201 74.9836 319.056 74.9836 350.322 156.217 339.786 156.217 331.177 133.445 296.74 133.445 288.64 156.217 278.048 156.217ZM478.267 73.624C487.103 73.624 494.523 75.0591 500.527 77.9293L500.527 88.4659C493.956 84.3117 486.178 82.2346 477.191 82.2346 468.091 82.2346 460.633 85.3691 454.818 91.6382 449.003 97.9073 446.095 106.027 446.095 115.997 446.095 126.269 448.795 134.342 454.195 140.214 459.594 146.087 466.92 149.023 476.171 149.023 482.515 149.023 488.009 147.758 492.654 145.228L492.654 122.455 474.869 122.455 474.869 113.844 502.169 113.844 502.169 150.666C494.013 155.273 484.951 157.577 474.982 157.577 463.389 157.577 454.015 153.838 446.86 146.361 439.704 138.883 436.126 128.988 436.126 116.677 436.126 104.101 440.101 93.7814 448.049 85.7185 455.998 77.6555 466.07 73.624 478.267 73.624Z" fill="url(#fill5)" fill-rule="evenodd"/><text fill="#000000" fill-opacity="0" font-family="Arial,Arial_MSFontService,sans-serif" font-size="83.9529" x="278.048" y="147.083">AUGMENTED</text><text fill="#454545" font-family="Ebrima,Ebrima_MSFontService,sans-serif" font-weight="400" font-size="116" transform="matrix(1 0 0 1.00014 960.544 156)">PCA</text><path d="M41.4753 40.732C45.1576 40.732 48.1413 41.776 50.4263 43.8641 52.7113 45.9521 54.873 49.9226 56.9114 55.7756L78.2161 115.605 69.4871 115.605 55.7278 74.8143 38.1711 115.605 29.2449 115.605 52.0784 65.4922 48.7742 55.7756C47.0316 50.6789 44.4672 48.1305 41.0808 48.1305 39.3054 48.1305 37.2999 48.4429 35.0642 49.0676L35.0642 41.3239C37.1684 40.9293 39.3054 40.732 41.4753 40.732Z" fill="url(#fill6)" fill-rule="evenodd"/><text fill="#000000" fill-opacity="0" font-family="Arial,Arial_MSFontService,sans-serif" font-size="74.8725" x="29.2449" y="106.245">λ</text><path d="M80.527 65.0977 89.404 65.0977 102.226 101.794C103.18 104.49 103.771 106.841 104.002 108.847L104.199 108.847C104.528 106.315 105.054 104.03 105.777 101.991L119.191 65.0977 127.723 65.0977 107.602 115.605 99.6618 115.605Z" fill="url(#fill7)" fill-rule="evenodd"/><text fill="#000000" fill-opacity="0" font-family="Arial,Arial_MSFontService,sans-serif" font-size="50.5069" x="80.527" y="109.291">v</text></g></svg>