<svg width="1171" height="216" xmlns="http://www.w3.org/2000/svg" xmlns:xlink="http://www.w3.org/1999/xlink" overflow="hidden"><defs><clipPath id="clip0"><rect x="0" y="0" width="1171" height="216"/></clipPath><linearGradient x1="-0.249991" y1="0.250026" x2="155.25" y2="155.772" gradientUnits="userSpaceOnUse" spreadMethod="reflect" id="fill1"><stop offset="0"/><stop offset="0.15"/><stop offset="1" stop-color="#595959"/></linearGradient><linearGradient x1="173.56" y1="-0.15001" x2="215.44" y2="156.172" gradientUnits="userSpaceOnUse" spreadMethod="reflect" id="fill2"><stop offset="0" stop-color="#6369E7"/><stop offset="0.05" stop-color="#6369E7"/><stop offset="1" stop-color="#E8667C"/></linearGradient><linearGradient x1="-0.183481" y1="173.71" x2="155.183" y2="215.346" gradientUnits="userSpaceOnUse" spreadMethod="reflect" id="fill3"><stop offset="0" stop-color="#6369E7"/><stop offset="0.05" stop-color="#6369E7"/><stop offset="1" stop-color="#E8667C"/></linearGradient><linearGradient x1="173" y1="173.025" x2="216" y2="216.031" gradientUnits="userSpaceOnUse" spreadMethod="reflect" id="fill4"><stop offset="0" stop-color="#E8667C"/><stop offset="1" stop-color="#E8667C"/></linearGradient><linearGradient x1="282.275" y1="-36.807" x2="923.899" y2="262.43" gradientUnits="userSpaceOnUse" spreadMethod="reflect" id="fill5"><stop offset="0" stop-color="#6369E7"/><stop offset="0.00757576" stop-color="#6468E6"/><stop offset="0.0151515" stop-color="#6668E6"/><stop offset="0.0227273" stop-color="#6868E6"/><stop offset="0.030303" stop-color="#6A68E6"/><stop offset="0.0378788" stop-color="#6C68E6"/><stop offset="0.0454545" stop-color="#6E68E6"/><stop offset="0.0530303" stop-color="#6F68E6"/><stop offset="0.0606061" stop-color="#7168E6"/><stop offset="0.0681818" stop-color="#7368E6"/><stop offset="0.0757576" stop-color="#7568E6"/><stop offset="0.0833333" stop-color="#7768E5"/><stop offset="0.0909091" stop-color="#7868E5"/><stop offset="0.0984849" stop-color="#7A68E5"/><stop offset="0.106061" stop-color="#7C68E5"/><stop offset="0.113636" stop-color="#7D68E5"/><stop offset="0.121212" stop-color="#7F68E4"/><stop offset="0.128788" stop-color="#8168E4"/><stop offset="0.136364" stop-color="#8268E4"/><stop offset="0.143939" stop-color="#8468E4"/><stop offset="0.151515" stop-color="#8668E3"/><stop offset="0.159091" stop-color="#8768E3"/><stop offset="0.166667" stop-color="#8968E3"/><stop offset="0.174242" stop-color="#8B68E2"/><stop offset="0.181818" stop-color="#8C68E2"/><stop offset="0.189394" stop-color="#8E68E2"/><stop offset="0.19697" stop-color="#8F68E1"/><stop offset="0.204545" stop-color="#9168E1"/><stop offset="0.212121" stop-color="#9268E1"/><stop offset="0.219697" stop-color="#9468E0"/><stop offset="0.227273" stop-color="#9568E0"/><stop offset="0.234848" stop-color="#9768DF"/><stop offset="0.242424" stop-color="#9868DF"/><stop offset="0.25" stop-color="#9A68DF"/><stop offset="0.257576" stop-color="#9B68DE"/><stop offset="0.265152" stop-color="#9D68DE"/><stop offset="0.272727" stop-color="#9E68DD"/><stop offset="0.280303" stop-color="#A068DD"/><stop offset="0.287879" stop-color="#A168DC"/><stop offset="0.295455" stop-color="#A368DC"/><stop offset="0.30303" stop-color="#A468DB"/><stop offset="0.310606" stop-color="#A568DB"/><stop offset="0.318182" stop-color="#A768DA"/><stop offset="0.325758" stop-color="#A868D9"/><stop offset="0.333333" stop-color="#A968D9"/><stop offset="0.340909" stop-color="#AB68D8"/><stop offset="0.348485" stop-color="#AC68D8"/><stop offset="0.356061" stop-color="#AD68D7"/><stop offset="0.363636" stop-color="#AF68D6"/><stop offset="0.371212" stop-color="#B068D6"/><stop offset="0.378788" stop-color="#B168D5"/><stop offset="0.386364" stop-color="#B268D5"/><stop offset="0.393939" stop-color="#B368D4"/><stop offset="0.401515" stop-color="#B568D3"/><stop offset="0.409091" stop-color="#B668D2"/><stop offset="0.416667" stop-color="#B768D2"/><stop offset="0.424242" stop-color="#B868D1"/><stop offset="0.431818" stop-color="#B968D0"/><stop offset="0.439394" stop-color="#BB68D0"/><stop offset="0.44697" stop-color="#BC68CF"/><stop offset="0.454545" stop-color="#BD68CE"/><stop offset="0.462121" stop-color="#BE68CD"/><stop offset="0.469697" stop-color="#BF68CD"/><stop offset="0.477273" stop-color="#C068CC"/><stop offset="0.484848" stop-color="#C168CB"/><stop offset="0.492424" stop-color="#C268CA"/><stop offset="0.5" stop-color="#C368C9"/><stop offset="0.507576" stop-color="#C468C8"/><stop offset="0.515152" stop-color="#C568C8"/><stop offset="0.522727" stop-color="#C668C7"/><stop offset="0.530303" stop-color="#C768C6"/><stop offset="0.537879" stop-color="#C868C5"/><stop offset="0.545455" stop-color="#C968C4"/><stop offset="0.55303" stop-color="#CA68C3"/><stop offset="0.560606" stop-color="#CB67C2"/><stop offset="0.568182" stop-color="#CC67C1"/><stop offset="0.575758" stop-color="#CD67C0"/><stop offset="0.583333" stop-color="#CE67C0"/><stop offset="0.590909" stop-color="#CF67BF"/><stop offset="0.598485" stop-color="#CF67BE"/><stop offset="0.606061" stop-color="#D067BD"/><stop offset="0.613636" stop-color="#D167BC"/><stop offset="0.621212" stop-color="#D267BB"/><stop offset="0.628788" stop-color="#D367BA"/><stop offset="0.636364" stop-color="#D467B9"/><stop offset="0.643939" stop-color="#D467B8"/><stop offset="0.651515" stop-color="#D567B7"/><stop offset="0.659091" stop-color="#D667B6"/><stop offset="0.666667" stop-color="#D767B4"/><stop offset="0.674242" stop-color="#D767B3"/><stop offset="0.681818" stop-color="#D867B2"/><stop offset="0.689394" stop-color="#D967B1"/><stop offset="0.69697" stop-color="#D967B0"/><stop offset="0.704545" stop-color="#DA67AF"/><stop offset="0.712121" stop-color="#DB67AE"/><stop offset="0.719697" stop-color="#DB67AD"/><stop offset="0.727273" stop-color="#DC67AC"/><stop offset="0.734848" stop-color="#DC67AA"/><stop offset="0.742424" stop-color="#DD67A9"/><stop offset="0.75" stop-color="#DE67A8"/><stop offset="0.757576" stop-color="#DE67A7"/><stop offset="0.765152" stop-color="#DF67A6"/><stop offset="0.772727" stop-color="#DF67A5"/><stop offset="0.780303" stop-color="#E067A3"/><stop offset="0.787879" stop-color="#E067A2"/><stop offset="0.795455" stop-color="#E167A1"/><stop offset="0.80303" stop-color="#E167A0"/><stop offset="0.810606" stop-color="#E2669E"/><stop offset="0.818182" stop-color="#E2669D"/><stop offset="0.825758" stop-color="#E2669C"/><stop offset="0.833333" stop-color="#E3669A"/><stop offset="0.840909" stop-color="#E36699"/><stop offset="0.848485" stop-color="#E46698"/><stop offset="0.856061" stop-color="#E46697"/><stop offset="0.863636" stop-color="#E46695"/><stop offset="0.871212" stop-color="#E56694"/><stop offset="0.878788" stop-color="#E56693"/><stop offset="0.886364" stop-color="#E56691"/><stop offset="0.893939" stop-color="#E66690"/><stop offset="0.901515" stop-color="#E6668E"/><stop offset="0.909091" stop-color="#E6668D"/><stop offset="0.916667" stop-color="#E6668C"/><stop offset="0.924242" stop-color="#E6668A"/><stop offset="0.931818" stop-color="#E76689"/><stop offset="0.939394" stop-color="#E76687"/><stop offset="0.94697" stop-color="#E76686"/><stop offset="0.954545" stop-color="#E76684"/><stop offset="0.962121" stop-color="#E76683"/><stop offset="0.969697" stop-color="#E76681"/><stop offset="0.977273" stop-color="#E76680"/><stop offset="0.984848" stop-color="#E7667F"/><stop offset="0.992424" stop-color="#E7667D"/><stop offset="1" stop-color="#E8667C"/></linearGradient></defs><g clip-path="url(#clip0)"><rect x="0" y="0" width="1171" height="216.031" fill="#FFFFFF" fill-opacity="0"/><rect x="0" y="0" width="155" height="156.022" fill="url(#fill1)"/><rect x="173" y="0" width="43" height="156.022" fill="url(#fill2)"/><rect x="0" y="173.025" width="155" height="43.0061" fill="url(#fill3)"/><rect x="173" y="173.025" width="43" height="43.0061" fill="url(#fill4)"/><path d="M313.843 84.8404C313.465 87.1441 313.031 88.9568 312.54 90.2787L299.909 124.891 328.06 124.891 315.316 90.2787C314.9 89.1457 314.485 87.3329 314.07 84.8404ZM899.964 83.5941 899.964 147.607 912.085 147.607C922.734 147.607 931.022 144.756 936.951 139.053 942.879 133.351 945.843 125.269 945.843 114.808 945.843 93.9986 934.779 83.5941 912.652 83.5941ZM890.449 74.9835 912.878 74.9835C941.501 74.9835 955.812 88.1826 955.812 114.581 955.812 127.119 951.838 137.193 943.889 144.803 935.94 152.413 925.301 156.218 911.972 156.218L890.449 156.218ZM831.448 74.9835 872.683 74.9835 872.683 83.5941 840.964 83.5941 840.964 110.616 870.304 110.616 870.304 119.169 840.964 119.169 840.964 147.607 874.495 147.607 874.495 156.218 831.448 156.218ZM763.122 74.9835 819.48 74.9835 819.48 83.5941 796.031 83.5941 796.031 156.218 786.515 156.218 786.515 83.5941 763.122 83.5941ZM684.449 74.9835 696.796 74.9835 737.464 138.713C739.163 141.357 740.258 143.17 740.749 144.152L740.976 144.152C740.598 141.81 740.409 137.826 740.409 132.199L740.409 74.9835 749.925 74.9835 749.925 156.218 738.257 156.218 696.456 91.4683C695.399 89.8444 694.531 88.1449 693.851 86.3699L693.511 86.3699C693.813 88.1071 693.964 91.8271 693.964 97.5297L693.964 156.218 684.449 156.218ZM625.448 74.9835 666.683 74.9835 666.683 83.5941 634.964 83.5941 634.964 110.616 664.304 110.616 664.304 119.169 634.964 119.169 634.964 147.607 668.495 147.607 668.495 156.218 625.448 156.218ZM521.449 74.9835 534.023 74.9835 558.945 131.632C560.87 135.975 562.116 139.223 562.683 141.376L563.023 141.376C564.646 136.919 565.949 133.596 566.931 131.406L592.363 74.9835 604.257 74.9835 604.257 156.218 594.798 156.218 594.798 101.722C594.798 97.4164 595.062 92.1481 595.591 85.9167L595.365 85.9167C594.458 89.58 593.646 92.2047 592.929 93.7909L565.175 156.218 560.531 156.218 532.833 94.2441C532.04 92.4313 531.228 89.6555 530.398 85.9167L530.171 85.9167C530.473 89.1646 530.624 94.4707 530.624 101.835L530.624 156.218 521.449 156.218ZM361.429 74.9835 370.945 74.9835 370.945 124.041C370.945 140.696 377.968 149.023 392.015 149.023 405.571 149.023 412.349 140.979 412.349 124.891L412.349 74.9835 421.865 74.9835 421.865 123.361C421.865 146.172 411.575 157.577 390.995 157.577 371.284 157.577 361.429 146.606 361.429 124.664ZM309.198 74.9835 319.054 74.9835 350.32 156.218 339.784 156.218 331.175 133.445 296.738 133.445 288.638 156.218 278.046 156.218ZM478.265 73.6239C487.101 73.6239 494.521 75.059 500.525 77.9292L500.525 88.4659C493.954 84.3117 486.176 82.2345 477.189 82.2345 468.089 82.2345 460.631 85.3691 454.816 91.6382 449.001 97.9073 446.093 106.027 446.093 115.997 446.093 126.269 448.793 134.342 454.193 140.214 459.592 146.087 466.918 149.023 476.169 149.023 482.513 149.023 488.007 147.758 492.652 145.228L492.652 122.455 474.866 122.455 474.866 113.845 502.167 113.845 502.167 150.666C494.011 155.274 484.949 157.577 474.98 157.577 463.387 157.577 454.013 153.838 446.858 146.361 439.702 138.883 436.124 128.989 436.124 116.677 436.124 104.101 440.099 93.7814 448.047 85.7184 455.996 77.6554 466.068 73.6239 478.265 73.6239Z" fill="url(#fill5)" fill-rule="evenodd"/><text fill="#000000" fill-opacity="0" font-family="Arial,Arial_MSFontService,sans-serif" font-size="83.9534" x="278.046" y="147.083">AUGMENTED</text><text fill="#454545" font-family="Ebrima,Ebrima_MSFontService,sans-serif" font-weight="400" font-size="116" transform="matrix(1 0 0 1.00014 960.538 156)">PCA</text></g></svg>