<svg width="216" height="216" xmlns="http://www.w3.org/2000/svg" xmlns:xlink="http://www.w3.org/1999/xlink" overflow="hidden"><defs><clipPath id="clip0"><rect x="0" y="0" width="216" height="216"/></clipPath><linearGradient x1="-2.44442e-14" y1="-2.44442e-14" x2="156" y2="156" gradientUnits="userSpaceOnUse" spreadMethod="reflect" id="fill1"><stop offset="0"/><stop offset="0.15"/><stop offset="1" stop-color="#595959"/></linearGradient><linearGradient x1="173.56" y1="-0.149991" x2="215.44" y2="156.15" gradientUnits="userSpaceOnUse" spreadMethod="reflect" id="fill2"><stop offset="0" stop-color="#6369E7"/><stop offset="0.05" stop-color="#6369E7"/><stop offset="1" stop-color="#E8667C"/></linearGradient><linearGradient x1="-0.149991" y1="173.56" x2="156.15" y2="215.44" gradientUnits="userSpaceOnUse" spreadMethod="reflect" id="fill3"><stop offset="0" stop-color="#6369E7"/><stop offset="0.05" stop-color="#6369E7"/><stop offset="1" stop-color="#E8667C"/></linearGradient><linearGradient x1="173" y1="173" x2="216" y2="216" gradientUnits="userSpaceOnUse" spreadMethod="reflect" id="fill4"><stop offset="0" stop-color="#E8667C"/><stop offset="1" stop-color="#E8667C"/></linearGradient><linearGradient x1="23.776" y1="22.239" x2="134.076" y2="132.539" gradientUnits="userSpaceOnUse" spreadMethod="reflect" id="fill5"><stop offset="0" stop-color="#313131"/><stop offset="0.3" stop-color="#313131"/><stop offset="0.7" stop-color="#505050"/><stop offset="1" stop-color="#505050"/></linearGradient><linearGradient x1="23.776" y1="22.239" x2="134.076" y2="132.539" gradientUnits="userSpaceOnUse" spreadMethod="reflect" id="fill6"><stop offset="0" stop-color="#313131"/><stop offset="0.3" stop-color="#313131"/><stop offset="0.7" stop-color="#505050"/><stop offset="1" stop-color="#505050"/></linearGradient></defs><g clip-path="url(#clip0)"><rect x="0" y="0" width="216" height="216" fill="#FFFFFF" fill-opacity="0"/><rect x="0" y="0" width="156" height="156" fill="url(#fill1)"/><rect x="173" y="0" width="43" height="156" fill="url(#fill2)"/><rect x="0" y="173" width="156" height="43" fill="url(#fill3)"/><rect x="173" y="173" width="43" height="43" fill="url(#fill4)"/><path d="M41.5578 40.7267C45.2401 40.7267 48.2238 41.7705 50.5087 43.8583 52.7937 45.946 54.9554 49.916 56.9939 55.7682L78.2985 115.589 69.5695 115.589 55.8103 74.8043 38.2536 115.589 29.3274 115.589 52.1608 65.4835 48.8566 55.7682C47.1141 50.6721 44.5497 48.1241 41.1633 48.1241 39.3879 48.1241 37.3824 48.4365 35.1467 49.0611L35.1467 41.3185C37.2509 40.9239 39.3879 40.7267 41.5578 40.7267Z" fill="url(#fill5)" fill-rule="evenodd"/><text fill="#000000" fill-opacity="0" font-family="Arial,Arial_MSFontService,sans-serif" font-size="74.8623" x="29.3274" y="106.231">λ</text><path d="M80.6164 65.089 89.4934 65.089 102.316 101.78C103.269 104.476 103.861 106.827 104.091 108.833L104.288 108.833C104.617 106.301 105.143 104.016 105.866 101.978L119.28 65.089 127.812 65.089 107.691 115.589 99.7512 115.589Z" fill="url(#fill6)" fill-rule="evenodd"/><text fill="#000000" fill-opacity="0" font-family="Arial,Arial_MSFontService,sans-serif" font-size="50.5" x="80.6164" y="109.276">v</text></g></svg>