<svg width="1200" height="216" xmlns="http://www.w3.org/2000/svg" xmlns:xlink="http://www.w3.org/1999/xlink" overflow="hidden"><defs><clipPath id="clip0"><rect x="0" y="0" width="1200" height="216"/></clipPath><linearGradient x1="-2.44442e-14" y1="-2.44442e-14" x2="156" y2="156" gradientUnits="userSpaceOnUse" spreadMethod="reflect" id="fill1"><stop offset="0"/><stop offset="0.15"/><stop offset="1" stop-color="#595959"/></linearGradient><linearGradient x1="173.56" y1="-0.149991" x2="215.44" y2="156.15" gradientUnits="userSpaceOnUse" spreadMethod="reflect" id="fill2"><stop offset="0" stop-color="#6369E7"/><stop offset="0.05" stop-color="#6369E7"/><stop offset="1" stop-color="#E8667C"/></linearGradient><linearGradient x1="-0.149991" y1="173.56" x2="156.15" y2="215.44" gradientUnits="userSpaceOnUse" spreadMethod="reflect" id="fill3"><stop offset="0" stop-color="#6369E7"/><stop offset="0.05" stop-color="#6369E7"/><stop offset="1" stop-color="#E8667C"/></linearGradient><linearGradient x1="173" y1="173" x2="216" y2="216" gradientUnits="userSpaceOnUse" spreadMethod="reflect" id="fill4"><stop offset="0" stop-color="#E8667C"/><stop offset="1" stop-color="#E8667C"/></linearGradient><linearGradient x1="282.319" y1="-36.8212" x2="924.027" y2="262.412" gradientUnits="userSpaceOnUse" spreadMethod="reflect" id="fill5"><stop offset="0" stop-color="#6369E7"/><stop offset="0.00757576" stop-color="#6468E6"/><stop offset="0.0151515" stop-color="#6668E6"/><stop offset="0.0227273" stop-color="#6868E6"/><stop offset="0.030303" stop-color="#6A68E6"/><stop offset="0.0378788" stop-color="#6C68E6"/><stop offset="0.0454545" stop-color="#6E68E6"/><stop offset="0.0530303" stop-color="#6F68E6"/><stop offset="0.0606061" stop-color="#7168E6"/><stop offset="0.0681818" stop-color="#7368E6"/><stop offset="0.0757576" stop-color="#7568E6"/><stop offset="0.0833333" stop-color="#7768E5"/><stop offset="0.0909091" stop-color="#7868E5"/><stop offset="0.0984849" stop-color="#7A68E5"/><stop offset="0.106061" stop-color="#7C68E5"/><stop offset="0.113636" stop-color="#7D68E5"/><stop offset="0.121212" stop-color="#7F68E4"/><stop offset="0.128788" stop-color="#8168E4"/><stop offset="0.136364" stop-color="#8268E4"/><stop offset="0.143939" stop-color="#8468E4"/><stop offset="0.151515" stop-color="#8668E3"/><stop offset="0.159091" stop-color="#8768E3"/><stop offset="0.166667" stop-color="#8968E3"/><stop offset="0.174242" stop-color="#8B68E2"/><stop offset="0.181818" stop-color="#8C68E2"/><stop offset="0.189394" stop-color="#8E68E2"/><stop offset="0.19697" stop-color="#8F68E1"/><stop offset="0.204545" stop-color="#9168E1"/><stop offset="0.212121" stop-color="#9268E1"/><stop offset="0.219697" stop-color="#9468E0"/><stop offset="0.227273" stop-color="#9568E0"/><stop offset="0.234848" stop-color="#9768DF"/><stop offset="0.242424" stop-color="#9868DF"/><stop offset="0.25" stop-color="#9A68DF"/><stop offset="0.257576" stop-color="#9B68DE"/><stop offset="0.265152" stop-color="#9D68DE"/><stop offset="0.272727" stop-color="#9E68DD"/><stop offset="0.280303" stop-color="#A068DD"/><stop offset="0.287879" stop-color="#A168DC"/><stop offset="0.295455" stop-color="#A368DC"/><stop offset="0.30303" stop-color="#A468DB"/><stop offset="0.310606" stop-color="#A568DB"/><stop offset="0.318182" stop-color="#A768DA"/><stop offset="0.325758" stop-color="#A868D9"/><stop offset="0.333333" stop-color="#A968D9"/><stop offset="0.340909" stop-color="#AB68D8"/><stop offset="0.348485" stop-color="#AC68D8"/><stop offset="0.356061" stop-color="#AD68D7"/><stop offset="0.363636" stop-color="#AF68D6"/><stop offset="0.371212" stop-color="#B068D6"/><stop offset="0.378788" stop-color="#B168D5"/><stop offset="0.386364" stop-color="#B268D5"/><stop offset="0.393939" stop-color="#B368D4"/><stop offset="0.401515" stop-color="#B568D3"/><stop offset="0.409091" stop-color="#B668D2"/><stop offset="0.416667" stop-color="#B768D2"/><stop offset="0.424242" stop-color="#B868D1"/><stop offset="0.431818" stop-color="#B968D0"/><stop offset="0.439394" stop-color="#BB68D0"/><stop offset="0.44697" stop-color="#BC68CF"/><stop offset="0.454545" stop-color="#BD68CE"/><stop offset="0.462121" stop-color="#BE68CD"/><stop offset="0.469697" stop-color="#BF68CD"/><stop offset="0.477273" stop-color="#C068CC"/><stop offset="0.484848" stop-color="#C168CB"/><stop offset="0.492424" stop-color="#C268CA"/><stop offset="0.5" stop-color="#C368C9"/><stop offset="0.507576" stop-color="#C468C8"/><stop offset="0.515152" stop-color="#C568C8"/><stop offset="0.522727" stop-color="#C668C7"/><stop offset="0.530303" stop-color="#C768C6"/><stop offset="0.537879" stop-color="#C868C5"/><stop offset="0.545455" stop-color="#C968C4"/><stop offset="0.55303" stop-color="#CA68C3"/><stop offset="0.560606" stop-color="#CB67C2"/><stop offset="0.568182" stop-color="#CC67C1"/><stop offset="0.575758" stop-color="#CD67C0"/><stop offset="0.583333" stop-color="#CE67C0"/><stop offset="0.590909" stop-color="#CF67BF"/><stop offset="0.598485" stop-color="#CF67BE"/><stop offset="0.606061" stop-color="#D067BD"/><stop offset="0.613636" stop-color="#D167BC"/><stop offset="0.621212" stop-color="#D267BB"/><stop offset="0.628788" stop-color="#D367BA"/><stop offset="0.636364" stop-color="#D467B9"/><stop offset="0.643939" stop-color="#D467B8"/><stop offset="0.651515" stop-color="#D567B7"/><stop offset="0.659091" stop-color="#D667B6"/><stop offset="0.666667" stop-color="#D767B4"/><stop offset="0.674242" stop-color="#D767B3"/><stop offset="0.681818" stop-color="#D867B2"/><stop offset="0.689394" stop-color="#D967B1"/><stop offset="0.69697" stop-color="#D967B0"/><stop offset="0.704545" stop-color="#DA67AF"/><stop offset="0.712121" stop-color="#DB67AE"/><stop offset="0.719697" stop-color="#DB67AD"/><stop offset="0.727273" stop-color="#DC67AC"/><stop offset="0.734848" stop-color="#DC67AA"/><stop offset="0.742424" stop-color="#DD67A9"/><stop offset="0.75" stop-color="#DE67A8"/><stop offset="0.757576" stop-color="#DE67A7"/><stop offset="0.765152" stop-color="#DF67A6"/><stop offset="0.772727" stop-color="#DF67A5"/><stop offset="0.780303" stop-color="#E067A3"/><stop offset="0.787879" stop-color="#E067A2"/><stop offset="0.795455" stop-color="#E167A1"/><stop offset="0.80303" stop-color="#E167A0"/><stop offset="0.810606" stop-color="#E2669E"/><stop offset="0.818182" stop-color="#E2669D"/><stop offset="0.825758" stop-color="#E2669C"/><stop offset="0.833333" stop-color="#E3669A"/><stop offset="0.840909" stop-color="#E36699"/><stop offset="0.848485" stop-color="#E46698"/><stop offset="0.856061" stop-color="#E46697"/><stop offset="0.863636" stop-color="#E46695"/><stop offset="0.871212" stop-color="#E56694"/><stop offset="0.878788" stop-color="#E56693"/><stop offset="0.886364" stop-color="#E56691"/><stop offset="0.893939" stop-color="#E66690"/><stop offset="0.901515" stop-color="#E6668E"/><stop offset="0.909091" stop-color="#E6668D"/><stop offset="0.916667" stop-color="#E6668C"/><stop offset="0.924242" stop-color="#E6668A"/><stop offset="0.931818" stop-color="#E76689"/><stop offset="0.939394" stop-color="#E76687"/><stop offset="0.94697" stop-color="#E76686"/><stop offset="0.954545" stop-color="#E76684"/><stop offset="0.962121" stop-color="#E76683"/><stop offset="0.969697" stop-color="#E76681"/><stop offset="0.977273" stop-color="#E76680"/><stop offset="0.984848" stop-color="#E7667F"/><stop offset="0.992424" stop-color="#E7667D"/><stop offset="1" stop-color="#E8667C"/></linearGradient></defs><g clip-path="url(#clip0)"><rect x="0" y="0" width="1200" height="216" fill="#FFFFFF" fill-opacity="0"/><rect x="0" y="0" width="156" height="156" fill="url(#fill1)"/><rect x="173" y="0" width="43" height="156" fill="url(#fill2)"/><rect x="0" y="173" width="156" height="43" fill="url(#fill3)"/><rect x="173" y="173" width="43" height="43" fill="url(#fill4)"/><path d="M313.882 84.8284C313.505 87.1318 313.071 88.9443 312.58 90.2659L299.949 124.873 328.099 124.873 315.355 90.2659C314.94 89.1331 314.524 87.3206 314.109 84.8284ZM900.003 83.5823 900.003 147.586 912.125 147.586C922.773 147.586 931.061 144.735 936.99 139.033 942.918 133.332 945.882 125.251 945.882 114.791 945.882 93.9853 934.818 83.5823 912.691 83.5823ZM890.488 74.9729 912.917 74.9729C941.54 74.9729 955.851 88.1702 955.851 114.565 955.851 127.101 951.877 137.174 943.928 144.783 935.98 152.391 925.341 156.196 912.011 156.196L890.488 156.196ZM832.488 74.9729 873.722 74.9729 873.722 83.5823 842.003 83.5823 842.003 110.6 871.343 110.6 871.343 119.153 842.003 119.153 842.003 147.586 875.535 147.586 875.535 156.196 832.488 156.196ZM763.162 74.9729 819.519 74.9729 819.519 83.5823 796.07 83.5823 796.07 156.196 786.554 156.196 786.554 83.5823 763.162 83.5823ZM684.488 74.9729 696.836 74.9729 737.503 138.694C739.203 141.337 740.298 143.149 740.789 144.131L741.015 144.131C740.638 141.79 740.449 137.806 740.449 132.18L740.449 74.9729 749.964 74.9729 749.964 156.196 738.296 156.196 696.496 91.4554C695.438 89.8317 694.57 88.1324 693.89 86.3577L693.55 86.3577C693.852 88.0947 694.003 91.8141 694.003 97.5159L694.003 156.196 684.488 156.196ZM625.488 74.9729 666.722 74.9729 666.722 83.5823 635.003 83.5823 635.003 110.6 664.343 110.6 664.343 119.153 635.003 119.153 635.003 147.586 668.535 147.586 668.535 156.196 625.488 156.196ZM521.488 74.9729 534.062 74.9729 558.984 131.614C560.91 135.956 562.156 139.203 562.722 141.356L563.062 141.356C564.686 136.9 565.988 133.577 566.97 131.387L592.402 74.9729 604.296 74.9729 604.296 156.196 594.837 156.196 594.837 101.707C594.837 97.4026 595.102 92.135 595.63 85.9046L595.404 85.9046C594.498 89.5673 593.686 92.1917 592.968 93.7776L565.214 156.196 560.57 156.196 532.873 94.2307C532.08 92.4182 531.268 89.6429 530.437 85.9046L530.211 85.9046C530.513 89.152 530.664 94.4573 530.664 101.821L530.664 156.196 521.488 156.196ZM361.468 74.9729 370.984 74.9729 370.984 124.024C370.984 140.676 378.007 149.002 392.054 149.002 405.61 149.002 412.388 140.959 412.388 124.873L412.388 74.9729 421.904 74.9729 421.904 123.344C421.904 146.151 411.614 157.555 391.035 157.555 371.324 157.555 361.468 146.586 361.468 124.647ZM309.238 74.9729 319.093 74.9729 350.359 156.196 339.824 156.196 331.214 133.426 296.777 133.426 288.677 156.196 278.086 156.196ZM479.304 73.6136C488.14 73.6136 495.56 75.0485 501.564 77.9182L501.564 88.4534C494.994 84.2998 487.215 82.2229 478.228 82.2229 469.128 82.2229 461.67 85.3571 455.855 91.6253 450.04 97.8935 447.132 106.012 447.132 115.981 447.132 126.252 449.832 134.323 455.232 140.195 460.632 146.066 467.957 149.002 477.209 149.002 483.552 149.002 489.046 147.737 493.691 145.207L493.691 122.438 475.906 122.438 475.906 113.828 503.207 113.828 503.207 150.645C495.05 155.252 485.988 157.555 476.019 157.555 464.427 157.555 455.053 153.817 447.897 146.34 440.741 138.864 437.164 128.97 437.164 116.66 437.164 104.086 441.138 93.7682 449.086 85.7063 457.035 77.6445 467.108 73.6136 479.304 73.6136Z" fill="url(#fill5)" fill-rule="evenodd"/><text fill="#000000" fill-opacity="0" font-family="Arial,Arial_MSFontService,sans-serif" font-size="83.9414" x="278.086" y="147.062">AUGMENTED</text><text fill="#454545" font-family="Ebrima,Ebrima_MSFontService,sans-serif" font-weight="400" font-size="116" transform="translate(960.674 156)">PCA</text></g></svg>