<svg width="1210" height="216" xmlns="http://www.w3.org/2000/svg" xmlns:xlink="http://www.w3.org/1999/xlink" overflow="hidden"><defs><clipPath id="clip0"><rect x="0" y="0" width="1210" height="216"/></clipPath><linearGradient x1="0" y1="0" x2="156" y2="155.957" gradientUnits="userSpaceOnUse" spreadMethod="reflect" id="fill1"><stop offset="0"/><stop offset="0.15"/><stop offset="1" stop-color="#595959"/></linearGradient><linearGradient x1="173.56" y1="-0.149946" x2="215.44" y2="156.107" gradientUnits="userSpaceOnUse" spreadMethod="reflect" id="fill2"><stop offset="0" stop-color="#6369E7"/><stop offset="0.05" stop-color="#6369E7"/><stop offset="1" stop-color="#E8667C"/></linearGradient><linearGradient x1="-0.149987" y1="173.512" x2="156.15" y2="215.381" gradientUnits="userSpaceOnUse" spreadMethod="reflect" id="fill3"><stop offset="0" stop-color="#6369E7"/><stop offset="0.05" stop-color="#6369E7"/><stop offset="1" stop-color="#E8667C"/></linearGradient><linearGradient x1="173" y1="172.952" x2="216" y2="215.94" gradientUnits="userSpaceOnUse" spreadMethod="reflect" id="fill4"><stop offset="0" stop-color="#E8667C"/><stop offset="1" stop-color="#E8667C"/></linearGradient><linearGradient x1="282.404" y1="-36.8485" x2="924.275" y2="262.378" gradientUnits="userSpaceOnUse" spreadMethod="reflect" id="fill5"><stop offset="0" stop-color="#6369E7"/><stop offset="0.00757576" stop-color="#6468E6"/><stop offset="0.0151515" stop-color="#6668E6"/><stop offset="0.0227273" stop-color="#6868E6"/><stop offset="0.030303" stop-color="#6A68E6"/><stop offset="0.0378788" stop-color="#6C68E6"/><stop offset="0.0454545" stop-color="#6E68E6"/><stop offset="0.0530303" stop-color="#6F68E6"/><stop offset="0.0606061" stop-color="#7168E6"/><stop offset="0.0681818" stop-color="#7368E6"/><stop offset="0.0757576" stop-color="#7568E6"/><stop offset="0.0833333" stop-color="#7768E5"/><stop offset="0.0909091" stop-color="#7868E5"/><stop offset="0.0984849" stop-color="#7A68E5"/><stop offset="0.106061" stop-color="#7C68E5"/><stop offset="0.113636" stop-color="#7D68E5"/><stop offset="0.121212" stop-color="#7F68E4"/><stop offset="0.128788" stop-color="#8168E4"/><stop offset="0.136364" stop-color="#8268E4"/><stop offset="0.143939" stop-color="#8468E4"/><stop offset="0.151515" stop-color="#8668E3"/><stop offset="0.159091" stop-color="#8768E3"/><stop offset="0.166667" stop-color="#8968E3"/><stop offset="0.174242" stop-color="#8B68E2"/><stop offset="0.181818" stop-color="#8C68E2"/><stop offset="0.189394" stop-color="#8E68E2"/><stop offset="0.19697" stop-color="#8F68E1"/><stop offset="0.204545" stop-color="#9168E1"/><stop offset="0.212121" stop-color="#9268E1"/><stop offset="0.219697" stop-color="#9468E0"/><stop offset="0.227273" stop-color="#9568E0"/><stop offset="0.234848" stop-color="#9768DF"/><stop offset="0.242424" stop-color="#9868DF"/><stop offset="0.25" stop-color="#9A68DF"/><stop offset="0.257576" stop-color="#9B68DE"/><stop offset="0.265152" stop-color="#9D68DE"/><stop offset="0.272727" stop-color="#9E68DD"/><stop offset="0.280303" stop-color="#A068DD"/><stop offset="0.287879" stop-color="#A168DC"/><stop offset="0.295455" stop-color="#A368DC"/><stop offset="0.30303" stop-color="#A468DB"/><stop offset="0.310606" stop-color="#A568DB"/><stop offset="0.318182" stop-color="#A768DA"/><stop offset="0.325758" stop-color="#A868D9"/><stop offset="0.333333" stop-color="#A968D9"/><stop offset="0.340909" stop-color="#AB68D8"/><stop offset="0.348485" stop-color="#AC68D8"/><stop offset="0.356061" stop-color="#AD68D7"/><stop offset="0.363636" stop-color="#AF68D6"/><stop offset="0.371212" stop-color="#B068D6"/><stop offset="0.378788" stop-color="#B168D5"/><stop offset="0.386364" stop-color="#B268D5"/><stop offset="0.393939" stop-color="#B368D4"/><stop offset="0.401515" stop-color="#B568D3"/><stop offset="0.409091" stop-color="#B668D2"/><stop offset="0.416667" stop-color="#B768D2"/><stop offset="0.424242" stop-color="#B868D1"/><stop offset="0.431818" stop-color="#B968D0"/><stop offset="0.439394" stop-color="#BB68D0"/><stop offset="0.44697" stop-color="#BC68CF"/><stop offset="0.454545" stop-color="#BD68CE"/><stop offset="0.462121" stop-color="#BE68CD"/><stop offset="0.469697" stop-color="#BF68CD"/><stop offset="0.477273" stop-color="#C068CC"/><stop offset="0.484848" stop-color="#C168CB"/><stop offset="0.492424" stop-color="#C268CA"/><stop offset="0.5" stop-color="#C368C9"/><stop offset="0.507576" stop-color="#C468C8"/><stop offset="0.515152" stop-color="#C568C8"/><stop offset="0.522727" stop-color="#C668C7"/><stop offset="0.530303" stop-color="#C768C6"/><stop offset="0.537879" stop-color="#C868C5"/><stop offset="0.545455" stop-color="#C968C4"/><stop offset="0.55303" stop-color="#CA68C3"/><stop offset="0.560606" stop-color="#CB67C2"/><stop offset="0.568182" stop-color="#CC67C1"/><stop offset="0.575758" stop-color="#CD67C0"/><stop offset="0.583333" stop-color="#CE67C0"/><stop offset="0.590909" stop-color="#CF67BF"/><stop offset="0.598485" stop-color="#CF67BE"/><stop offset="0.606061" stop-color="#D067BD"/><stop offset="0.613636" stop-color="#D167BC"/><stop offset="0.621212" stop-color="#D267BB"/><stop offset="0.628788" stop-color="#D367BA"/><stop offset="0.636364" stop-color="#D467B9"/><stop offset="0.643939" stop-color="#D467B8"/><stop offset="0.651515" stop-color="#D567B7"/><stop offset="0.659091" stop-color="#D667B6"/><stop offset="0.666667" stop-color="#D767B4"/><stop offset="0.674242" stop-color="#D767B3"/><stop offset="0.681818" stop-color="#D867B2"/><stop offset="0.689394" stop-color="#D967B1"/><stop offset="0.69697" stop-color="#D967B0"/><stop offset="0.704545" stop-color="#DA67AF"/><stop offset="0.712121" stop-color="#DB67AE"/><stop offset="0.719697" stop-color="#DB67AD"/><stop offset="0.727273" stop-color="#DC67AC"/><stop offset="0.734848" stop-color="#DC67AA"/><stop offset="0.742424" stop-color="#DD67A9"/><stop offset="0.75" stop-color="#DE67A8"/><stop offset="0.757576" stop-color="#DE67A7"/><stop offset="0.765152" stop-color="#DF67A6"/><stop offset="0.772727" stop-color="#DF67A5"/><stop offset="0.780303" stop-color="#E067A3"/><stop offset="0.787879" stop-color="#E067A2"/><stop offset="0.795455" stop-color="#E167A1"/><stop offset="0.80303" stop-color="#E167A0"/><stop offset="0.810606" stop-color="#E2669E"/><stop offset="0.818182" stop-color="#E2669D"/><stop offset="0.825758" stop-color="#E2669C"/><stop offset="0.833333" stop-color="#E3669A"/><stop offset="0.840909" stop-color="#E36699"/><stop offset="0.848485" stop-color="#E46698"/><stop offset="0.856061" stop-color="#E46697"/><stop offset="0.863636" stop-color="#E46695"/><stop offset="0.871212" stop-color="#E56694"/><stop offset="0.878788" stop-color="#E56693"/><stop offset="0.886364" stop-color="#E56691"/><stop offset="0.893939" stop-color="#E66690"/><stop offset="0.901515" stop-color="#E6668E"/><stop offset="0.909091" stop-color="#E6668D"/><stop offset="0.916667" stop-color="#E6668C"/><stop offset="0.924242" stop-color="#E6668A"/><stop offset="0.931818" stop-color="#E76689"/><stop offset="0.939394" stop-color="#E76687"/><stop offset="0.94697" stop-color="#E76686"/><stop offset="0.954545" stop-color="#E76684"/><stop offset="0.962121" stop-color="#E76683"/><stop offset="0.969697" stop-color="#E76681"/><stop offset="0.977273" stop-color="#E76680"/><stop offset="0.984848" stop-color="#E7667F"/><stop offset="0.992424" stop-color="#E7667D"/><stop offset="1" stop-color="#E8667C"/></linearGradient></defs><g clip-path="url(#clip0)"><rect x="0" y="0" width="1210" height="215.94" fill="#FFFFFF" fill-opacity="0"/><rect x="0" y="0" width="156" height="155.957" fill="url(#fill1)"/><rect x="173" y="0" width="43" height="155.957" fill="url(#fill2)"/><rect x="0" y="172.952" width="156" height="42.9881" fill="url(#fill3)"/><rect x="173" y="172.952" width="43" height="42.9881" fill="url(#fill4)"/><path d="M313.959 84.8053C313.582 87.1081 313.147 88.9201 312.656 90.2413L300.026 124.839 328.176 124.839 315.432 90.2413C315.016 89.1088 314.601 87.2969 314.186 84.8053ZM900.08 83.5596 900.08 147.546 912.201 147.546C922.85 147.546 931.138 144.696 937.067 138.995 942.995 133.295 945.959 125.217 945.959 114.76 945.959 93.9597 934.895 83.5596 912.768 83.5596ZM890.565 74.9526 912.994 74.9526C941.617 74.9526 955.928 88.1462 955.928 114.533 955.928 127.066 951.954 137.136 944.005 144.743 936.056 152.35 925.417 156.153 912.088 156.153L890.565 156.153ZM832.565 74.9526 873.799 74.9526 873.799 83.5596 842.08 83.5596 842.08 110.57 871.42 110.57 871.42 119.12 842.08 119.12 842.08 147.546 875.611 147.546 875.611 156.153 832.565 156.153ZM763.238 74.9526 819.596 74.9526 819.596 83.5596 796.147 83.5596 796.147 156.153 786.631 156.153 786.631 83.5596 763.238 83.5596ZM684.565 74.9526 696.912 74.9526 737.58 138.656C739.279 141.298 740.375 143.11 740.865 144.092L741.092 144.092C740.714 141.751 740.526 137.769 740.526 132.144L740.526 74.9526 750.041 74.9526 750.041 156.153 738.373 156.153 696.572 91.4305C695.515 89.8072 694.647 88.1085 693.967 86.3342L693.627 86.3342C693.929 88.0707 694.08 91.7891 694.08 97.4893L694.08 156.153 684.565 156.153ZM625.565 74.9526 666.799 74.9526 666.799 83.5596 635.08 83.5596 635.08 110.57 664.42 110.57 664.42 119.12 635.08 119.12 635.08 147.546 668.611 147.546 668.611 156.153 625.565 156.153ZM521.565 74.9526 534.139 74.9526 559.061 131.578C560.986 135.919 562.233 139.165 562.799 141.317L563.139 141.317C564.762 136.863 566.065 133.541 567.047 131.351L592.479 74.9526 604.373 74.9526 604.373 156.153 594.914 156.153 594.914 101.68C594.914 97.3761 595.178 92.11 595.707 85.8812L595.481 85.8812C594.574 89.543 593.762 92.1666 593.045 93.7521L565.291 156.153 560.647 156.153 532.949 94.2051C532.156 92.3931 531.345 89.6185 530.514 85.8812L530.287 85.8812C530.589 89.1277 530.74 94.4316 530.74 101.793L530.74 156.153 521.565 156.153ZM361.545 74.9526 371.061 74.9526 371.061 123.99C371.061 140.638 378.084 148.961 392.131 148.961 405.687 148.961 412.465 140.921 412.465 124.839L412.465 74.9526 421.981 74.9526 421.981 123.31C421.981 146.111 411.691 157.512 391.111 157.512 371.401 157.512 361.545 146.545 361.545 124.613ZM309.315 74.9526 319.17 74.9526 350.436 156.153 339.901 156.153 331.291 133.39 296.854 133.39 288.754 156.153 278.162 156.153ZM479.381 73.5936C488.217 73.5936 495.637 75.0281 501.641 77.8971L501.641 88.4294C495.07 84.2768 487.292 82.2006 478.305 82.2006 469.205 82.2006 461.747 85.3338 455.932 91.6003 450.117 97.8669 447.209 105.983 447.209 115.949 447.209 126.217 449.909 134.286 455.309 140.156 460.708 146.026 468.034 148.961 477.285 148.961 483.629 148.961 489.123 147.697 493.768 145.168L493.768 122.404 475.983 122.404 475.983 113.797 503.283 113.797 503.283 150.604C495.127 155.209 486.065 157.512 476.096 157.512 464.503 157.512 455.129 153.775 447.974 146.3 440.818 138.826 437.24 128.935 437.24 116.629 437.24 104.058 441.215 93.7427 449.163 85.683 457.112 77.6234 467.184 73.5936 479.381 73.5936Z" fill="url(#fill5)" fill-rule="evenodd"/><text fill="#000000" fill-opacity="0" font-family="Arial,Arial_MSFontService,sans-serif" font-size="83.9183" x="278.162" y="147.022">AUGMENTED</text><text fill="#454545" font-family="Ebrima,Ebrima_MSFontService,sans-serif" font-weight="400" font-size="116" transform="matrix(1 0 0 0.999725 960.94 156)">PCA<tspan font-size="101" x="-931.584" y="-40.011">λ</tspan><tspan font-size="101" x="-881.07" y="-40.011">v</tspan></text></g></svg>